{
.appVersion = "3151";
.formatVersion = 3;
DisplayStrings = (
d
);
customParameters = (
{
name = vendorID;
value = COMM;
},
{
name = panose;
value = (
2,
13,
2,
4,
3,
5,
2,
12,
2,
3
);
},
{
name = unicodeRanges;
value = (
0,
1,
2
);
},
{
name = codePageRanges;
value = (
"1252",
"1250",
"1254",
"1257",
"bit 29"
);
},
{
name = fsType;
value = (
2
);
},
{
name = "Family Alignment Zones";
value = (
{
pos = 715;
size = 11;
},
{
pos = 685;
size = 15;
},
{
pos = 517;
size = 9;
},
{
pos = 0;
size = "-12";
},
{
pos = "-156";
size = "-21";
}
);
},
{
name = glyphOrder;
value = (
.notdef,
Eth,
eth,
Lslash,
lslash,
Scaron,
scaron,
Yacute,
yacute,
Thorn,
thorn,
Zcaron,
zcaron,
onehalf,
onequarter,
onesuperior,
threequarters,
threesuperior,
twosuperior,
brokenbar,
minus,
multiply,
space,
exclam,
quotedbl,
numbersign,
dollar,
percent,
ampersand,
quotesingle,
parenleft,
parenright,
asterisk,
plus,
comma,
hyphen,
period,
slash,
zero,
one,
two,
three,
four,
five,
six,
seven,
eight,
nine,
colon,
semicolon,
less,
equal,
greater,
question,
at,
A,
B,
C,
D,
E,
F,
G,
H,
I,
J,
K,
L,
M,
N,
O,
P,
Q,
R,
S,
T,
U,
V,
W,
X,
Y,
Z,
bracketleft,
backslash,
bracketright,
asciicircum,
underscore,
grave,
a,
b,
c,
d,
e,
f,
g,
h,
i,
j,
k,
l,
m,
n,
o,
p,
q,
r,
s,
t,
u,
v,
w,
x,
y,
z,
braceleft,
bar,
braceright,
asciitilde,
Adieresis,
Aring,
Ccedilla,
Eacute,
Ntilde,
Odieresis,
Udieresis,
aacute,
agrave,
acircumflex,
adieresis,
atilde,
aring,
ccedilla,
eacute,
egrave,
ecircumflex,
edieresis,
iacute,
igrave,
icircumflex,
idieresis,
ntilde,
oacute,
ograve,
ocircumflex,
odieresis,
otilde,
uacute,
ugrave,
ucircumflex,
udieresis,
dagger,
degree,
cent,
sterling,
section,
bullet,
paragraph,
germandbls,
registered,
copyright,
trademark,
acute,
dieresis,
notequal,
AE,
Oslash,
infinity,
plusminus,
lessequal,
greaterequal,
yen,
mu,
partialdiff,
summation,
product,
pi,
integral,
ordfeminine,
ordmasculine,
Omega,
ae,
oslash,
questiondown,
exclamdown,
logicalnot,
radical,
florin,
approxequal,
Delta,
guillemotleft,

glyphs = (
{
glyphname = zero;
kernLeft = zero;
kernRight = zero;
lastChange = "2023-04-04 19:31:49 +0000";
layers = (
{
hints = (
{
horizontal = 1;
place = (-10, 28);
place = (-10, 28);
type = Stem;
},
{
horizontal = 1;
place = (669, 27);
place = (669, 27);
type = Stem;
},
{
place = (46, 32);
place = (46, 32);
type = Stem;
},
{
place = (524, 32);
place = (524, 32);
type = Stem;
}
);
layerId = m01;
shapes = (
{
closed = 1;
nodes = (
(130,696,o),
(46,426,o),
(46,250,cs),
(46,97,o),
(120,-10,o),
(262,-10,cs),
(479,-10,o),
(556,259,o),
(556,437,cs),
(556,587,o),
(485,696,o),
(345,696,cs)
);
},
{
closed = 1;
nodes = (
(469,669,o),
(525,562,o),
(524,436,cs),
(524,272,o),
(455,18,o),
(262,18,cs),
(135,18,o),
(78,121,o),
(78,249,cs),
(78,413,o),
(152,669,o),
(345,669,cs)
);
}
);
width = 570;
}
);
note = zero;
unicode = 48;
},
{
glyphname = one;
kernLeft = one;
kernRight = one;
lastChange = "2023-04-03 23:37:58 +0000";
layers = (
{
hints = (
{
horizontal = 1;
place = (0, 21);
target = up;
type = BottomGhost;
},
{
horizontal = 1;
place = (527, 27);
place = (527, 27);
type = Stem;
},
{
horizontal = 1;
place = (688, -20);
target = down;
type = TopGhost;
},
{
place = (62, 212);
place = (62, 212);
type = Stem;
}
);
layerId = m01;
shapes = (
{
closed = 1;
nodes = (
(219,585,o),
(170,558,o),
(68,554,c),
(62,527,l),
(133,528,o),
(200,547,o),
(222,580,c),
(111,0,l),
(141,0,l),
(274,688,l),
(250,688,l)
);
}
);
width = 280;
}
);
note = one;
unicode = 49;
},
{
glyphname = two;
kernLeft = two;
kernRight = two;
lastChange = "2023-04-03 23:40:20 +0000";
layers = (
{
hints = (
{
horizontal = 1;
place = (0, 29);
place = (0, 29);
type = Stem;
},
{
horizontal = 1;
place = (668, 28);
place = (668, 28);
type = Stem;
},
{
place = (469, 32);
place = (469, 32);
type = Stem;
}
);
layerId = m01;
shapes = (
{
closed = 1;
nodes = (
(101,467,l),
(126,593,o),
(193,668,o),
(308,668,cs),
(408,668,o),
(469,611,o),
(469,519,cs),
(469,400,o),
(381,356,o),
(266,299,cs),
(133,233,o),
(16,169,o),
(-15,0,c),
(418,0,l),
(423,29,l),
(24,29,l),
(55,153,o),
(152,211,o),
(278,273,cs),
(399,333,o),
(501,386,o),
(501,519,cs),
(501,633,o),
(418,696,o),
(309,696,cs),
(180,696,o),
(94,612,o),
(71,467,c)
);
}
);
width = 503;
}
);
note = two;
unicode = 50;
},
{
glyphname = three;
kernLeft = three;
kernRight = three;
lastChange = "2023-04-03 23:50:22 +0000";
layers = (
{
hints = (
{
horizontal = 1;
place = (-10, 29);
place = (-10, 29);
type = Stem;
},
{
horizontal = 1;
place = (350, 27);
place = (350, 27);
type = Stem;
},
{
horizontal = 1;
place = (669, 27);
place = (669, 27);
type = Stem;
},
{
place = (11, 31);
place = (11, 31);
type = Stem;
},
{
place = (441, 32);
place = (441, 32);
type = Stem;
},
{
place = (466, 32);
place = (466, 32);
type = Stem;
}
);
layerId = m01;
shapes = (
{
closed = 1;
nodes = (
(107,487,l),
(126,591,o),
(198,669,o),
(308,669,cs),
(393,669,o),
(466,626,o),
(466,529,cs),
(466,425,o),
(389,377,o),
(300,377,cs),
(241,377,l),
(236,350,l),
(287,350,ls),
(378,350,o),
(441,296,o),
(441,204,cs),
(441,86,o),
(353,19,o),
(241,19,cs),
(118,19,o),
(48,91,o),
(42,209,c),
(11,209,l),
(15,71,o),
(104,-10,o),
(241,-10,cs),
(372,-10,o),
(473,74,o),
(473,205,cs),
(473,282,o),
(428,340,o),
(365,361,c),
(365,362,l),
(441,382,o),
(498,437,o),
(498,530,cs),
(498,644,o),
(408,696,o),
(309,696,cs),
(183,696,o),
(97,609,o),
(75,487,c)
);
}
);
width = 511;
}
);
note = three;
unicode = 51;
},
{
glyphname = four;
kernLeft = four;
kernRight = four;
lastChange = "2023-04-04 01:08:42 +0000";
layers = (
{
hints = (
{
horizontal = 1;
place = (0, 21);
target = up;
type = BottomGhost;
},
{
horizontal = 1;
place = (189, 27);
place = (189, 27);
type = Stem;
},
{
horizontal = 1;
place = (692, -20);
target = down;
type = TopGhost;
},
{
place = (7, 483);
place = (7, 483);
type = Stem;
},
{
horizontal = 1;
place = (637, 55);
place = (637, 55);
type = Stem;
}
);
layerId = m01;
shapes = (
{
closed = 1;
nodes = (
(7,189,l),
(347,189,l),
(310,0,l),
(341,0,l),
(377,189,l),
(485,189,l),
(490,216,l),
(383,216,l),
(476,692,l),
(446,692,l),
(13,216,l)
);
},
{
closed = 1;
nodes = (
(434,637,l),
(352,216,l),
(49,216,l)
);
}
);
width = 520;
}
);
note = four;
unicode = 52;
},
{
glyphname = five;
kernLeft = five;
kernRight = five;
lastChange = "2023-04-04 01:34:56 +0000";
layers = (
{
hints = (
{
horizontal = 1;
place = (-10, 29);
place = (-10, 29);
type = Stem;
},
{
horizontal = 1;
place = (419, 28);
place = (419, 28);
type = Stem;
},
{
horizontal = 1;
place = (652, 29);
place = (652, 29);
type = Stem;
},
{
place = (8, 32);
place = (8, 32);
type = Stem;
},
{
place = (432, 32);
place = (432, 32);
type = Stem;
}
);
layerId = m01;
shapes = (
{
closed = 1;
nodes = (
(160,681,l),
(56,326,l),
(86,326,l),
(116,369,o),
(174,419,o),
(267,419,cs),
(363,419,o),
(432,355,o),
(432,245,cs),
(432,110,o),
(353,19,o),
(222,19,cs),
(118,19,o),
(50,83,o),
(40,182,c),
(8,182,l),
(18,64,o),
(106,-10,o),
(221,-10,cs),
(371,-10,o),
(464,100,o),
(464,245,cs),
(464,374,o),
(379,447,o),
(271,447,cs),
(194,447,o),
(137,413,o),
(99,373,c),
(98,373,l),
(180,652,l),
(488,652,l),
(493,681,l)
);
}
);
width = 490;
}
);
note = five;
unicode = 53;
},
{
glyphname = six;
kernLeft = six;
kernRight = six;
lastChange = "2023-04-04 18:09:22 +0000";
layers = (
{
hints = (
{
horizontal = 1;
place = (-10, 27);
place = (-10, 27);
type = Stem;
},
{
horizontal = 1;
place = (413, 27);
place = (413, 27);
type = Stem;
},
{
horizontal = 1;
place = (668, 28);
place = (668, 28);
type = Stem;
},
{
place = (45, 34);
place = (45, 34);
type = Stem;
},
{
place = (494, 32);
place = (494, 32);
type = Stem;
},
{
place = (458, 32);
place = (458, 32);
type = Stem;
}
);
layerId = m01;
shapes = (
{
closed = 1;
nodes = (
(519,631,o),
(456,696,o),
(347,696,cs),
(139,696,o),
(45,432,o),
(45,234,cs),
(45,89,o),
(115,-10,o),
(255,-10,cs),
(397,-10,o),
(490,97,o),
(490,238,cs),
(490,363,o),
(406,440,o),
(293,440,cs),
(186,440,o),
(108,371,o),
(79,280,c),
(79,280,l),
(96,484,o),
(186,668,o),
(346,668,cs),
(438,668,o),
(489,611,o),
(494,526,c),
(526,526,l)
);
},
{
closed = 1;
nodes = (
(392,413,o),
(458,341,o),
(458,237,cs),
(458,113,o),
(382,17,o),
(255,17,cs),
(152,17,o),
(80,85,o),
(80,198,cs),
(80,292,o),
(150,413,o),
(292,413,cs)
);
}
);
width = 532;
}
);
note = six;
unicode = 54;
},
{
glyphname = seven;
kernLeft = seven;
kernRight = seven;
lastChange = "2023-04-04 01:44:12 +0000";
layers = (
{
hints = (
{
horizontal = 1;
place = (0, 21);
target = up;
type = BottomGhost;
},
{
horizontal = 1;
place = (657, 28);
place = (657, 28);
type = Stem;
},
{
place = (89, 442);
place = (89, 442);
type = Stem;
}
);
layerId = m01;
shapes = (
{
closed = 1;
nodes = (
(89,657,l),
(488,657,l),
(283,475,o),
(162,249,o),
(108,0,c),
(141,0,l),
(198,259,o),
(314,474,o),
(525,657,c),
(531,685,l),
(95,685,l)
);
}
);
width = 468;
}
);
note = seven;
unicode = 55;
},
{
glyphname = eight;
kernLeft = eight;
kernRight = eight;
lastChange = "2023-04-04 18:15:49 +0000";
layers = (
{
hints = (
{
horizontal = 1;
place = (-10, 28);
place = (-10, 28);
type = Stem;
},
{
horizontal = 1;
place = (359, 27);
place = (359, 27);
type = Stem;
},
{
horizontal = 1;
place = (669, 27);
place = (669, 27);
type = Stem;
},
{
place = (20, 32);
place = (20, 32);
type = Stem;
},
{
place = (111, 31);
place = (111, 31);
type = Stem;
},
{
place = (463, 32);
place = (463, 32);
type = Stem;
},
{
place = (482, 31);
place = (482, 31);
type = Stem;
}
);
layerId = m01;
shapes = (
{
closed = 1;
nodes = (
(197,696,o),
(111,616,o),
(111,510,cs),
(111,447,o),
(149,399,o),
(210,379,c),
(210,377,l),
(89,357,o),
(20,280,o),
(20,176,cs),
(20,59,o),
(121,-10,o),
(250,-10,cs),
(401,-10,o),
(496,79,o),
(495,205,cs),
(495,285,o),
(442,347,o),
(363,368,c),
(363,369,l),
(455,389,o),
(513,447,o),
(513,532,cs),
(513,641,o),
(423,696,o),
(323,696,cs)
);
},
{
closed = 1;
nodes = (
(377,359,o),
(463,306,o),
(463,205,cs),
(464,92,o),
(381,18,o),
(250,18,cs),
(134,18,o),
(52,78,o),
(52,176,cs),
(52,286,o),
(136,359,o),
(271,359,cs)
);
},
{
closed = 1;
nodes = (
(411,669,o),
(482,618,o),
(482,531,cs),
(482,438,o),
(405,386,o),
(300,386,cs),
(210,386,o),
(142,431,o),
(142,510,cs),
(142,602,o),
(217,670,o),
(323,669,cs)
);
}
);
width = 532;
}
);
note = eight;
unicode = 56;
},
{
glyphname = nine;
kernLeft = nine;
kernRight = nine;
lastChange = "2023-04-04 02:05:25 +0000";
layers = (
{
hints = (
{
horizontal = 1;
place = (-10, 28);
place = (-10, 28);
type = Stem;
},
{
horizontal = 1;
place = (246, 27);
place = (246, 27);
type = Stem;
},
{
horizontal = 1;
place = (669, 27);
place = (669, 27);
type = Stem;
},
{
place = (22, 31);
place = (22, 31);
type = Stem;
},
{
place = (468, 36);
place = (468, 36);
type = Stem;
},
{
place = (58, 32);
place = (58, 32);
type = Stem;
}
);
layerId = m01;
shapes = (
{
closed = 1;
nodes = (
(363,246,o),
(443,316,o),
(471,407,c),
(458,223,o),
(393,18,o),
(209,18,cs),
(117,18,o),
(58,72,o),
(53,160,c),
(22,160,l),
(28,53,o),
(99,-10,o),
(208,-10,cs),
(421,-10,o),
(504,238,o),
(504,449,cs),
(504,601,o),
(431,696,o),
(293,696,cs),
(156,696,o),
(58,588,o),
(58,450,cs),
(58,324,o),
(143,246,o),
(256,246,cs)
);
},
{
closed = 1;
nodes = (
(157,273,o),
(90,345,o),
(90,450,cs),
(90,573,o),
(171,669,o),
(293,669,cs),
(411,669,o),
(468,588,o),
(468,488,cs),
(468,394,o),
(399,273,o),
(255,273,cs)
);
}
);
width = 522;
}
);
note = nine;
unicode = 57;
},
{
glyphname = A;
kernLeft = A;
kernRight = A;
lastChange = "2023-04-04 19:45:49 +0000";
layers = (
{
hints = (
{
horizontal = 1;
place = (0, 21);
target = up;
type = BottomGhost;
},
{
horizontal = 1;
place = (244, 27);
place = (244, 27);
type = Stem;
},
{
horizontal = 1;
place = (681, 34);
place = (681, 34);
type = Stem;
},
{
place = (-42, 576);
place = (-42, 576);
type = Stem;
}
);
layerId = m01;
shapes = (
{
closed = 1;
nodes = (
(-42,0,l),
(-10,0,l),
(124,244,l),
(452,244,l),
(503,0,l),
(534,0,l),
(385,715,l),
(351,715,l)
);
},
{
closed = 1;
nodes = (
(447,271,l),
(139,271,l),
(363,681,l)
);
}
);
width = 593;
}
);
note = A;
unicode = 65;
},
{
glyphname = B;
lastChange = "2023-04-04 19:45:54 +0000";
layers = (
{
hints = (
{
horizontal = 1;
place = (0, 29);
place = (0, 29);
type = Stem;
},
{
horizontal = 1;
place = (361, 28);
place = (361, 28);
type = Stem;
},
{
horizontal = 1;
place = (687, 28);
place = (687, 28);
type = Stem;
},
{
place = (554, 31);
place = (554, 31);
type = Stem;
},
{
place = (533, 32);
place = (533, 32);
type = Stem;
}
);
layerId = m01;
shapes = (
{
closed = 1;
nodes = (
(14,0,l),
(310,0,ls),
(456,0,o),
(565,77,o),
(565,221,cs),
(565,300,o),
(523,354,o),
(446,376,c),
(538,400,o),
(585,463,o),
(585,549,cs),
(585,659,o),
(507,715,o),
(397,715,cs),
(152,715,l)
);
},
{
closed = 1;
nodes = (
(396,687,ls),
(482,687,o),
(554,645,o),
(554,548,cs),
(554,454,o),
(489,389,o),
(368,389,cs),
(121,389,l),
(178,687,l)
);
},
{
closed = 1;
nodes = (
(373,361,ls),
(472,361,o),
(533,309,o),
(533,220,cs),
(533,93,o),
(437,29,o),
(310,29,cs),
(51,29,l),
(115,361,l)
);
}
);
width = 600;
}
);
note = B;
unicode = 66;
},
{
glyphname = C;
kernLeft = C;
kernRight = C;
lastChange = "2023-04-04 02:16:52 +0000";
layers = (
{
hints = (
{
horizontal = 1;
place = (-10, 28);
place = (-10, 28);
type = Stem;
},
{
horizontal = 1;
place = (698, 27);
place = (698, 27);
type = Stem;
},
{
place = (48, 33);
place = (48, 33);
type = Stem;
}
);
layerId = m01;
shapes = (
{
closed = 1;
nodes = (
(635,650,o),
(544,725,o),
(409,725,cs),
(173,725,o),
(48,501,o),
(48,295,cs),
(48,116,o),
(144,-10,o),
(329,-10,cs),
(493,-10,o),
(595,105,o),
(629,253,c),
(599,253,l),
(568,121,o),
(475,18,o),
(329,18,cs),
(160,18,o),
(81,135,o),
(81,296,cs),
(81,488,o),
(189,698,o),
(408,698,cs),
(535,698,o),
(606,628,o),
(622,517,c),
(652,517,l)
);
}
);
width = 651;
}
);
note = C;
unicode = 67;
},
{
glyphname = D;
kernRight = Eth;
lastChange = "2023-04-04 19:45:57 +0000";
layers = (
{
hints = (
{
horizontal = 1;
place = (0, 28);
place = (0, 28);
type = Stem;
},
{
horizontal = 1;
place = (687, 28);
place = (687, 28);
type = Stem;
},
{
place = (593, 32);
place = (593, 32);
type = Stem;
}
);
layerId = m01;
shapes = (
{
closed = 1;
nodes = (
(14,0,l),
(251,0,ls),
(509,0,o),
(625,203,o),
(625,430,cs),
(625,598,o),
(539,715,o),
(358,715,cs),
(151,715,l)
);
},
{
closed = 1;
nodes = (
(357,687,ls),
(518,687,o),
(593,582,o),
(593,429,cs),
(593,213,o),
(486,28,o),
(250,28,cs),
(50,28,l),
(177,687,l)
);
}
);
width = 636;
}
);
note = D;
unicode = 68;
},
{
glyphname = E;
kernRight = E;
layers = (
{
hints = (
{
horizontal = 1;
place = (0, 29);
place = (0, 29);
type = Stem;
},
{
horizontal = 1;
place = (356, 28);
place = (356, 28);
type = Stem;
},
{
horizontal = 1;
place = (687, 28);
place = (687, 28);
type = Stem;
},
{
place = (14, 572);
place = (14, 572);
type = Stem;
}
);
layerId = m01;
shapes = (
{
closed = 1;
nodes = (
(14,0,l),
(471,0,l),
(477,29,l),
(51,29,l),
(114,356,l),
(489,356,l),
(494,384,l),
(119,384,l),
(178,687,l),
(581,687,l),
(586,715,l),
(151,715,l)
);
}
);
width = 556;
}
);
note = E;
unicode = 69;
},
{
glyphname = F;
kernRight = F;
layers = (
{
hints = (
{
horizontal = 1;
place = (0, 21);
target = up;
type = BottomGhost;
},
{
horizontal = 1;
place = (359, 28);
place = (359, 28);
type = Stem;
},
{
horizontal = 1;
place = (687, 28);
place = (687, 28);
type = Stem;
},
{
place = (14, 575);
place = (14, 575);
type = Stem;
}
);
layerId = m01;
shapes = (
{
closed = 1;
nodes = (
(14,0,l),
(45,0,l),
(115,359,l),
(473,359,l),
(479,387,l),
(120,387,l),
(177,687,l),
(583,687,l),
(589,715,l),
(151,715,l)
);
}
);
width = 527;
}
);
note = F;
unicode = 70;
},
{
glyphname = G;
kernLeft = C;
kernRight = G;
lastChange = "2023-04-04 02:27:03 +0000";
layers = (
{
hints = (
{
horizontal = 1;
place = (-10, 28);
place = (-10, 28);
type = Stem;
},
{
horizontal = 1;
place = (326, 28);
place = (326, 28);
type = Stem;
},
{
horizontal = 1;
place = (698, 27);
place = (698, 27);
type = Stem;
},
{
place = (48, 32);
place = (48, 32);
type = Stem;
},
{
horizontal = 1;
place = (0, 21);
target = up;
type = BottomGhost;
}
);
layerId = m01;
shapes = (
{
closed = 1;
nodes = (
(646,648,o),
(554,725,o),
(413,725,cs),
(179,725,o),
(48,510,o),
(48,295,cs),
(48,108,o),
(149,-10,o),
(328,-10,cs),
(460,-10,o),
(542,66,o),
(584,142,c),
(560,0,l),
(586,0,l),
(654,354,l),
(373,354,l),
(367,326,l),
(618,326,l),
(606,265,ls),
(582,136,o),
(491,18,o),
(330,18,cs),
(164,18,o),
(80,125,o),
(80,297,cs),
(80,498,o),
(196,698,o),
(412,698,cs),
(538,698,o),
(618,627,o),
(631,515,c),
(661,515,l)
);
}
);
width = 691;
}
);
note = G;
unicode = 71;
},
{
glyphname = H;
layers = (
{
hints = (
{
horizontal = 1;
place = (0, 21);
target = up;
type = BottomGhost;
},
{
horizontal = 1;
place = (367, 27);
place = (367, 27);
type = Stem;
},
{
horizontal = 1;
place = (715, -20);
target = down;
type = TopGhost;
},
{
place = (14, 647);
place = (14, 647);
type = Stem;
}
);
layerId = m01;
shapes = (
{
closed = 1;
nodes = (
(14,0,l),
(45,0,l),
(116,367,l),
(563,367,l),
(492,0,l),
(523,0,l),
(661,715,l),
(630,715,l),
(568,394,l),
(121,394,l),
(183,715,l),
(152,715,l)
);
}
);
width = 637;
}
);
note = H;
unicode = 72;
},
{
glyphname = I;
lastChange = "2023-04-04 02:29:35 +0000";
layers = (
{
hints = (
{
horizontal = 1;
place = (0, 21);
target = up;
type = BottomGhost;
},
{
horizontal = 1;
place = (715, -20);
target = down;
type = TopGhost;
},
{
place = (17, 169);
place = (17, 169);
type = Stem;
}
);
layerId = m01;
shapes = (
{
closed = 1;
nodes = (
(17,0,l),
(48,0,l),
(186,715,l),
(155,715,l)
);
}
);
width = 165;
}
);
note = I;
unicode = 73;
},
{
glyphname = J;
kernLeft = J;
kernRight = J;
lastChange = "2023-04-04 02:32:11 +0000";
layers = (
{
hints = (
{
horizontal = 1;
place = (-10, 29);
place = (-10, 29);
type = Stem;
},
{
horizontal = 1;
place = (715, -20);
target = down;
type = TopGhost;
},
{
place = (4, 31);
place = (4, 31);
type = Stem;
}
);
layerId = m01;
shapes = (
{
closed = 1;
nodes = (
(344,165,ls),
(326,73,o),
(274,19,o),
(177,19,cs),
(68,19,o),
(23,79,o),
(35,173,cs),
(41,221,l),
(10,221,l),
(4,170,ls),
(-10,52,o),
(59,-10,o),
(176,-10,cs),
(297,-10,o),
(356,62,o),
(375,160,cs),
(482,715,l),
(451,715,l)
);
}
);
width = 452;
}
);
note = J;
unicode = 74;
},
{
glyphname = K;
kernRight = K;
lastChange = "2023-04-04 02:34:40 +0000";
layers = (
{
hints = (
{
horizontal = 1;
place = (0, 21);
target = up;
type = BottomGhost;
},
{
horizontal = 1;
place = (715, -20);
target = down;
type = TopGhost;
},
{
place = (14, 610);
place = (14, 610);
type = Stem;
}
);
layerId = m01;
shapes = (
{
closed = 1;
nodes = (
(14,0,l),
(45,0,l),
(95,259,l),
(266,406,l),
(501,0,l),
(535,0,l),
(290,427,l),
(624,715,l),
(581,715,l),
(103,299,l),
(183,715,l),
(152,715,l)
);
}
);
width = 572;
}
);
note = K;
unicode = 75;
},
{
glyphname = L;
kernRight = L;
lastChange = "2023-04-04 02:34:53 +0000";
layers = (
{
hints = (
{
horizontal = 1;
place = (0, 29);
place = (0, 29);
type = Stem;
},
{
horizontal = 1;
place = (715, -20);
target = down;
type = TopGhost;
},
{
place = (14, 430);
place = (14, 430);
type = Stem;
}
);
layerId = m01;
shapes = (
{
closed = 1;
nodes = (
(14,0,l),
(438,0,l),
(444,29,l),
(50,29,l),
(183,715,l),
(152,715,l)
);
}
);
width = 505;
}
);
note = L;
unicode = 76;
},
{
glyphname = M;
lastChange = "2023-04-04 02:44:18 +0000";
layers = (
{
hints = (
{
horizontal = 1;
place = (0, 21);
target = up;
type = BottomGhost;
},
{
horizontal = 1;
place = (672, 43);
place = (672, 43);
type = Stem;
},
{
place = (14, 779);
place = (14, 779);
type = Stem;
},
{
horizontal = 1;
place = (0, 42);
place = (0, 42);
type = Stem;
}
);
layerId = m01;
shapes = (
{
closed = 1;
nodes = (
(14,0,l),
(44,0,l),
(174,672,l),
(175,672,l),
(319,0,l),
(351,0,l),
(752,672,l),
(753,672,l),
(623,0,l),
(654,0,l),
(793,715,l),
(745,715,l),
(343,42,l),
(341,42,l),
(195,715,l),
(152,715,l)
);
}
);
width = 769;
}
);
note = M;
unicode = 77;
},
{
glyphname = N;
lastChange = "2023-04-04 02:47:38 +0000";
layers = (
{
hints = (
{
horizontal = 1;
place = (0, 21);
target = up;
type = BottomGhost;
},
{
horizontal = 1;
place = (715, -20);
target = down;
type = TopGhost;
},
{
place = (14, 649);
place = (14, 649);
type = Stem;
},
{
horizontal = 1;
place = (670, 45);
place = (670, 45);
type = Stem;
}
);
layerId = m01;
shapes = (
{
closed = 1;
nodes = (
(14,0,l),
(44,0,l),
(174,670,l),
(175,670,l),
(492,0,l),
(525,0,l),
(663,715,l),
(633,715,l),
(503,47,l),
(502,47,l),
(187,715,l),
(152,715,l)
);
}
);
width = 639;
}
);
note = N;
unicode = 78;
},
{
glyphname = O;
kernLeft = C;
kernRight = O;
lastChange = "2023-04-04 19:46:02 +0000";
layers = (
{
hints = (
{
horizontal = 1;
place = (-10, 28);
place = (-10, 28);
type = Stem;
},
{
horizontal = 1;
place = (697, 29);
place = (697, 29);
type = Stem;
},
{
place = (48, 32);
place = (48, 32);
type = Stem;
},
{
place = (669, 32);
place = (669, 32);
type = Stem;
}
);
layerId = m01;
shapes = (
{
closed = 1;
nodes = (
(186,726,o),
(48,523,o),
(48,305,cs),
(48,106,o),
(179,-10,o),
(346,-10,cs),
(572,-10,o),
(701,189,o),
(701,409,cs),
(701,608,o),
(572,726,o),
(405,726,cs)
);
},
{
closed = 1;
nodes = (
(559,697,o),
(669,586,o),
(669,409,cs),
(669,202,o),
(551,18,o),
(347,18,cs),
(190,18,o),
(80,130,o),
(80,305,cs),
(80,511,o),
(203,697,o),
(404,697,cs)
);
}
);
width = 712;
}
);
note = O;
unicode = 79;
},
{
glyphname = P;
kernRight = P;
lastChange = "2023-04-04 19:46:04 +0000";
layers = (
{
hints = (
{
horizontal = 1;
place = (0, 21);
target = up;
type = BottomGhost;
},
{
horizontal = 1;
place = (327, 28);
place = (327, 28);
type = Stem;
},
{
horizontal = 1;
place = (687, 28);
place = (687, 28);
type = Stem;
},
{
place = (551, 32);
place = (551, 32);
type = Stem;
}
);
layerId = m01;
shapes = (
{
closed = 1;
nodes = (
(14,0,l),
(45,0,l),
(108,327,l),
(318,327,ls),
(475,327,o),
(583,392,o),
(583,542,cs),
(583,660,o),
(505,715,o),
(387,715,cs),
(151,715,l)
);
},
{
closed = 1;
nodes = (
(386,687,ls),
(487,687,o),
(551,641,o),
(551,540,cs),
(551,405,o),
(451,355,o),
(318,355,cs),
(113,355,l),
(177,687,l)
);
}
);
width = 555;
}
);
note = P;
unicode = 80;
},
{
glyphname = Q;
kernLeft = C;
kernRight = Q;
lastChange = "2023-04-04 19:46:07 +0000";
layers = (
{
hints = (
{
horizontal = 1;
place = (-10, 28);
place = (-10, 28);
type = Stem;
},
{
horizontal = 1;
place = (697, 29);
place = (697, 29);
type = Stem;
},
{
place = (48, 32);
place = (48, 32);
type = Stem;
},
{
place = (669, 32);
place = (669, 32);
type = Stem;
}
);
layerId = m01;
shapes = (
{
closed = 1;
nodes = (
(186,726,o),
(48,523,o),
(48,305,cs),
(48,106,o),
(179,-10,o),
(346,-10,cs),
(415,-10,o),
(476,9,o),
(526,42,c),
(622,-49,l),
(642,-27,l),
(551,60,l),
(648,138,o),
(701,270,o),
(701,409,cs),
(701,608,o),
(572,726,o),
(405,726,cs)
);
},
{
closed = 1;
nodes = (
(559,697,o),
(669,586,o),
(669,409,cs),
(669,275,o),
(620,151,o),
(530,80,c),
(446,162,l),
(425,139,l),
(505,62,l),
(460,34,o),
(407,18,o),
(347,18,cs),
(190,18,o),
(80,130,o),
(80,305,cs),
(80,511,o),
(203,697,o),
(404,697,cs)
);
}
);
width = 712;
}
);
note = Q;
unicode = 81;
},
{
glyphname = R;
kernRight = R;
lastChange = "2023-04-04 19:46:09 +0000";
layers = (
{
hints = (
{
horizontal = 1;
place = (0, 21);
target = up;
type = BottomGhost;
},
{
horizontal = 1;
place = (334, 28);
place = (334, 28);
type = Stem;
},
{
horizontal = 1;
place = (687, 28);
place = (687, 28);
type = Stem;
},
{
place = (500, 32);
place = (500, 32);
type = Stem;
},
{
place = (572, 31);
place = (572, 31);
type = Stem;
}
);
layerId = m01;
shapes = (
{
closed = 1;
nodes = (
(13,0,l),
(44,0,l),
(109,334,l),
(357,334,ls),
(463,334,o),
(509,309,o),
(504,185,cs),
(502,149,o),
(500,115,o),
(500,93,cs),
(500,33,o),
(508,11,o),
(517,0,c),
(550,0,l),
(550,3,l),
(540,15,o),
(532,32,o),
(532,93,cs),
(532,116,o),
(534,154,o),
(535,185,cs),
(539,281,o),
(512,328,o),
(449,346,c),
(449,347,l),
(542,371,o),
(603,436,o),
(603,538,cs),
(603,660,o),
(524,715,o),
(415,715,cs),
(152,715,l)
);
},
{
closed = 1;
nodes = (
(413,687,ls),
(506,687,o),
(572,639,o),
(572,537,cs),
(572,419,o),
(487,362,o),
(366,362,cs),
(115,362,l),
(177,687,l)
);
}
);
width = 613;
}
);
note = R;
unicode = 82;
},
{
glyphname = S;
kernLeft = Scaron;
kernRight = Scaron;
lastChange = "2023-04-04 03:06:55 +0000";
layers = (
{
hints = (
{
horizontal = 1;
place = (-10, 27);
place = (-10, 27);
type = Stem;
},
{
horizontal = 1;
place = (698, 28);
place = (698, 28);
type = Stem;
},
{
place = (9, 31);
place = (9, 31);
type = Stem;
},
{
place = (92, 31);
place = (92, 31);
type = Stem;
},
{
place = (489, 32);
place = (489, 32);
type = Stem;
},
{
place = (523, 30);
place = (523, 30);
type = Stem;
}
);
layerId = m01;
shapes = (
{
closed = 1;
nodes = (
(548,650,o),
(465,726,o),
(318,726,cs),
(187,726,o),
(92,657,o),
(92,546,cs),
(92,450,o),
(154,412,o),
(287,366,cs),
(423,319,o),
(489,290,o),
(489,198,cs),
(489,77,o),
(389,17,o),
(270,17,cs),
(140,17,o),
(40,84,o),
(40,229,c),
(9,229,l),
(9,63,o),
(127,-10,o),
(269,-10,cs),
(408,-10,o),
(521,65,o),
(521,198,cs),
(521,314,o),
(436,346,o),
(295,395,cs),
(177,436,o),
(123,468,o),
(123,546,cs),
(123,644,o),
(203,698,o),
(318,698,cs),
(447,698,o),
(517,630,o),
(523,526,c),
(553,526,l)
);
}
);
width = 565;
}
);
note = S;
unicode = 83;
},
{
glyphname = T;
kernLeft = T;
kernRight = T;
lastChange = "2023-04-04 03:07:55 +0000";
layers = (
{
hints = (
{
horizontal = 1;
place = (0, 21);
target = up;
type = BottomGhost;
},
{
horizontal = 1;
place = (687, 28);
place = (687, 28);
type = Stem;
},
{
place = (92, 520);
place = (92, 520);
type = Stem;
}
);
layerId = m01;
shapes = (
{
closed = 1;
nodes = (
(92,687,l),
(334,687,l),
(201,0,l),
(232,0,l),
(365,687,l),
(607,687,l),
(612,715,l),
(97,715,l)
);
}
);
width = 543;
}
);
note = T;
unicode = 84;
},
{
glyphname = U;
kernLeft = U;
kernRight = U;
lastChange = "2023-04-04 03:07:59 +0000";
layers = (
{
hints = (
{
horizontal = 1;
place = (-9, 28);
place = (-9, 28);
type = Stem;
},
{
horizontal = 1;
place = (715, -20);
target = down;
type = TopGhost;
},
{
place = (46, 32);
place = (46, 32);
type = Stem;
}
);
layerId = m01;
shapes = (
{
closed = 1;
nodes = (
(53,253,ls),
(18,75,o),
(120,-9,o),
(280,-9,cs),
(424,-9,o),
(521,67,o),
(548,209,cs),
(647,715,l),
(616,715,l),
(517,212,ls),
(492,83,o),
(410,19,o),
(283,19,cs),
(124,19,o),
(55,103,o),
(84,252,cs),
(174,715,l),
(142,715,l)
);
}
);
width = 614;
}
);
note = U;
unicode = 85;
},
{
glyphname = V;
kernLeft = V;
kernRight = V;
lastChange = "2023-04-04 03:08:08 +0000";
layers = (
{
hints = (
{
horizontal = 1;
place = (0, 21);
target = up;
type = BottomGhost;
},
{
horizontal = 1;
place = (715, -20);
target = down;
type = TopGhost;
},
{
place = (87, 563);
place = (87, 563);
type = Stem;
}
);
layerId = m01;
shapes = (
{
closed = 1;
nodes = (
(230,0,l),
(262,0,l),
(650,715,l),
(618,715,l),
(252,37,l),
(251,37,l),
(118,715,l),
(87,715,l)
);
}
);
width = 570;
}
);
note = V;
unicode = 86;
},
{
glyphname = W;
kernLeft = W;
kernRight = W;
lastChange = "2023-04-04 03:17:26 +0000";
layers = (
{
hints = (
{
horizontal = 1;
place = (0, 21);
target = up;
type = BottomGhost;
},
{
horizontal = 1;
place = (675, 40);
place = (675, 40);
type = Stem;
},
{
place = (93, 831);
place = (93, 831);
type = Stem;
}
);
layerId = m01;
shapes = (
{
closed = 1;
nodes = (
(171,0,l),
(204,0,l),
(500,675,l),
(501,675,l),
(568,0,l),
(601,0,l),
(924,715,l),
(893,715,l),
(593,44,l),
(592,44,l),
(524,715,l),
(491,715,l),
(195,44,l),
(194,44,l),
(123,715,l),
(93,715,l)
);
}
);
width = 853;
}
);
note = W;
unicode = 87;
},
{
glyphname = X;
kernLeft = X;
kernRight = X;
lastChange = "2023-04-04 04:43:51 +0000";
layers = (
{
hints = (
{
horizontal = 1;
place = (0, 21);
target = up;
type = BottomGhost;
},
{
horizontal = 1;
place = (715, -20);
target = down;
type = TopGhost;
},
{
place = (-43, 649);
place = (-43, 649);
type = Stem;
}
);
layerId = m01;
shapes = (
{
closed = 1;
nodes = (
(272,368,l),
(-43,0,l),
(-7,0,l),
(286,342,l),
(287,342,l),
(460,0,l),
(494,0,l),
(309,364,l),
(606,715,l),
(570,715,l),
(295,389,l),
(294,389,l),
(129,715,l),
(96,715,l)
);
}
);
width = 541;
}
);
note = X;
unicode = 88;
},
{
glyphname = Y;
kernLeft = Yacute;
kernRight = Yacute;
lastChange = "2023-04-04 04:45:27 +0000";
layers = (
{
hints = (
{
horizontal = 1;
place = (0, 21);
target = up;
type = BottomGhost;
},
{
horizontal = 1;
place = (715, -20);
target = down;
type = TopGhost;
},
{
place = (81, 555);
place = (81, 555);
type = Stem;
}
);
layerId = m01;
shapes = (
{
closed = 1;
nodes = (
(274,324,l),
(211,0,l),
(242,0,l),
(305,321,l),
(636,715,l),
(600,715,l),
(295,350,l),
(294,350,l),
(115,715,l),
(81,715,l)
);
}
);
width = 552;
}
);
note = Y;
unicode = 89;
},
{
glyphname = Z;
kernLeft = Zcaron;
kernRight = Zcaron;
lastChange = "2023-04-04 04:53:44 +0000";
layers = (
{
hints = (
{
horizontal = 1;
place = (0, 28);
place = (0, 28);
type = Stem;
},
{
horizontal = 1;
place = (688, 27);
place = (688, 27);
type = Stem;
},
{
place = (-21, 620);
place = (-21, 620);
type = Stem;
}
);
layerId = m01;
shapes = (
{
closed = 1;
nodes = (
(134,688,l),
(555,688,l),
(555,686,l),
(-15,30,l),
(-21,0,l),
(480,0,l),
(485,28,l),
(22,28,l),
(22,29,l),
(594,686,l),
(599,715,l),
(140,715,l)
);
}
);
width = 557;
}
);
note = Z;
unicode = 90;
},
{
glyphname = a;
kernLeft = a;
kernRight = a;
lastChange = "2023-04-04 20:17:19 +0000";
layers = (
{
hints = (
{
horizontal = 1;
place = (-10, 26);
place = (-10, 26);
type = Stem;
},
{
horizontal = 1;
place = (500, 26);
place = (500, 26);
type = Stem;
},
{
place = (5, 30);
place = (5, 30);
type = Stem;
},
{
place = (408, 30);
place = (408, 30);
type = Stem;
},
{
place = (351, 27);
place = (351, 27);
type = Stem;
},
{
horizontal = 1;
place = (-4, 24);
place = (-4, 24);
type = Stem;
},
{
horizontal = 1;
place = (1, 21);
target = up;
type = BottomGhost;
}
);
layerId = m01;
shapes = (
{
closed = 1;
nodes = (
(93,372,l),
(109,447,o),
(161,500,o),
(270,500,cs),
(359,500,o),
(409,464,o),
(409,393,cs),
(409,279,o),
(296,295,o),
(190,286,cs),
(61,277,o),
(5,223,o),
(5,133,cs),
(5,44,o),
(76,-10,o),
(168,-10,cs),
(264,-10,o),
(323,38,o),
(353,90,c),
(353,90,l),
(350,73,ls),
(342,30,o),
(356,-4,o),
(401,-4,cs),
(412,-4,o),
(420,-2,o),
(425,1,c),
(430,23,l),
(428,23,ls),
(423,22,o),
(415,20,o),
(408,20,cs),
(381,20,o),
(372,39,o),
(379,77,cs),
(434,346,ls),
(459,471,o),
(386,526,o),
(271,526,cs),
(146,526,o),
(80,459,o),
(63,372,c)
);
},
{
closed = 1;
nodes = (
(371,180,ls),
(354,93,o),
(284,16,o),
(170,16,cs),
(89,16,o),
(36,62,o),
(35,133,cs),
(35,208,o),
(74,251,o),
(191,261,cs),
(297,270,o),
(360,274,o),
(396,302,c)
);
}
);
width = 480;
}
);
note = a;
unicode = 97;
},
{
glyphname = b;
kernLeft = b;
kernRight = thorn;
lastChange = "2023-04-04 19:46:16 +0000";
layers = (
{
hints = (
{
horizontal = 1;
place = (-9, 25);
place = (-9, 25);
type = Stem;
},
{
horizontal = 1;
place = (500, 26);
place = (500, 26);
type = Stem;
},
{
horizontal = 1;
place = (715, -20);
target = down;
type = TopGhost;
},
{
place = (59, 15);
place = (59, 15);
type = Stem;
},
{
place = (463, 30);
place = (463, 30);
type = Stem;
},
{
horizontal = 1;
place = (0, 21);
target = up;
type = BottomGhost;
}
);
layerId = m01;
shapes = (
{
closed = 1;
nodes = (
(2,0,l),
(32,0,l),
(58,138,l),
(59,138,l),
(76,61,o),
(135,-9,o),
(239,-9,cs),
(411,-9,o),
(493,162,o),
(493,315,cs),
(494,438,o),
(425,526,o),
(312,526,cs),
(215,526,o),
(150,473,o),
(108,396,c),
(108,396,l),
(170,715,l),
(140,715,l)
);
},
{
closed = 1;
nodes = (
(412,500,o),
(463,416,o),
(463,315,cs),
(463,179,o),
(392,16,o),
(240,16,cs),
(124,16,o),
(74,106,o),
(74,197,cs),
(75,328,o),
(148,500,o),
(308,500,cs)
);
}
);
width = 516;
}
);
note = b;
unicode = 98;
},
{
glyphname = c;
kernLeft = c;
kernRight = c;
lastChange = "2023-04-04 05:11:15 +0000";
layers = (
{
hints = (
{
horizontal = 1;
place = (-10, 27);
place = (-10, 27);
type = Stem;
},
{
horizontal = 1;
place = (500, 26);
place = (500, 26);
type = Stem;
},
{
place = (23, 30);
place = (23, 30);
type = Stem;
},
{
place = (437, 28);
place = (437, 28);
type = Stem;
}
);
layerId = m01;
shapes = (
{
closed = 1;
nodes = (
(454,457,o),
(391,526,o),
(284,526,cs),
(115,526,o),
(23,364,o),
(23,208,cs),
(23,64,o),
(105,-10,o),
(225,-10,cs),
(333,-10,o),
(414,64,o),
(443,174,c),
(414,174,l),
(387,80,o),
(317,17,o),
(226,17,cs),
(115,17,o),
(53,89,o),
(53,208,cs),
(53,349,o),
(132,500,o),
(284,500,cs),
(381,500,o),
(428,434,o),
(437,363,c),
(465,363,l)
);
}
);
width = 474;
}
);
note = c;
unicode = 99;
},
{
glyphname = d;
kernLeft = d;
lastChange = "2023-04-04 19:46:18 +0000";
layers = (
{
hints = (
{
horizontal = 1;
place = (-10, 25);
place = (-10, 25);
type = Stem;
},
{
horizontal = 1;
place = (500, 26);
place = (500, 26);
type = Stem;
},
{
horizontal = 1;
place = (715, -20);
target = down;
type = TopGhost;
},
{
place = (21, 31);
place = (21, 31);
type = Stem;
},
{
place = (444, 16);
place = (444, 16);
type = Stem;
},
{
horizontal = 1;
place = (0, 21);
target = up;
type = BottomGhost;
}
);
layerId = m01;
shapes = (
{
closed = 1;
nodes = (
(460,377,l),
(459,377,l),
(442,455,o),
(386,526,o),
(286,526,cs),
(115,526,o),
(22,352,o),
(21,200,cs),
(21,74,o),
(96,-10,o),
(210,-10,cs),
(305,-10,o),
(369,43,o),
(409,119,c),
(409,119,l),
(387,0,l),
(417,0,l),
(555,715,l),
(525,715,l)
);
},
{
closed = 1;
nodes = (
(395,500,o),
(445,407,o),
(444,319,cs),
(444,188,o),
(368,15,o),
(212,15,cs),
(107,15,o),
(52,97,o),
(52,200,cs),
(52,337,o),
(132,500,o),
(285,500,cs)
);
}
);
width = 518;
}
);
note = d;
unicode = 100;
},
{
glyphname = e;
kernLeft = c;
kernRight = e;
lastChange = "2023-04-04 19:46:20 +0000";
layers = (
{
hints = (
{
horizontal = 1;
place = (-10, 26);
place = (-10, 26);
type = Stem;
},
{
horizontal = 1;
place = (256, 26);
place = (256, 26);
type = Stem;
},
{
horizontal = 1;
place = (500, 26);
place = (500, 26);
type = Stem;
},
{
place = (23, 30);
place = (23, 30);
type = Stem;
},
{
place = (438, 30);
place = (438, 30);
type = Stem;
}
);
layerId = m01;
shapes = (
{
closed = 1;
nodes = (
(485,404,o),
(432,526,o),
(282,526,cs),
(118,526,o),
(23,363,o),
(23,210,cs),
(23,72,o),
(105,-10,o),
(226,-10,cs),
(337,-10,o),
(410,56,o),
(443,152,c),
(414,152,l),
(384,75,o),
(324,16,o),
(227,16,cs),
(93,16,o),
(39,128,o),
(56,256,c),
(463,256,l)
);
},
{
closed = 1;
nodes = (
(60,282,l),
(83,398,o),
(162,500,o),
(281,500,cs),
(406,500,o),
(450,399,o),
(435,282,c)
);
}
);
width = 488;
}
);
note = e;
unicode = 101;
},
{
glyphname = f;
kernLeft = f;
kernRight = f;
lastChange = "2023-04-04 05:30:24 +0000";
layers = (
{
hints = (
{
horizontal = 1;
place = (0, 21);
target = up;
type = BottomGhost;
},
{
horizontal = 1;
place = (491, 26);
place = (491, 26);
type = Stem;
},
{
horizontal = 1;
place = (694, 26);
place = (694, 26);
type = Stem;
},
{
place = (40, 277);
place = (40, 277);
type = Stem;
}
);
layerId = m01;
shapes = (
{
closed = 1;
nodes = (
(63,491,l),
(136,491,l),
(40,0,l),
(70,0,l),
(165,491,l),
(273,491,l),
(278,517,l),
(170,517,l),
(191,620,ls),
(202,678,o),
(228,694,o),
(275,694,cs),
(282,694,o),
(306,693,o),
(311,692,c),
(317,719,l),
(311,720,o),
(283,720,o),
(276,720,cs),
(213,720,o),
(176,697,o),
(161,624,cs),
(140,517,l),
(68,517,l)
);
}
);
width = 252;
}
);
note = f;
unicode = 102;
},
{
glyphname = g;
kernLeft = g;
kernRight = g;
lastChange = "2023-04-04 19:46:22 +0000";
layers = (
{
hints = (
{
horizontal = 1;
place = (-179, 26);
place = (-179, 26);
type = Stem;
},
{
horizontal = 1;
place = (16, 26);
place = (16, 26);
type = Stem;
},
{
horizontal = 1;
place = (517, -20);
target = down;
type = TopGhost;
},
{
place = (8, 30);
place = (8, 30);
type = Stem;
},
{
place = (440, 16);
place = (440, 16);
type = Stem;
},
{
horizontal = 1;
place = (500, 26);
place = (500, 26);
type = Stem;
},
{
place = (23, 31);
place = (23, 31);
type = Stem;
}
);
layerId = m01;
shapes = (
{
closed = 1;
nodes = (
(456,381,l),
(455,381,l),
(436,467,o),
(374,526,o),
(280,526,cs),
(112,526,o),
(24,362,o),
(23,219,cs),
(23,100,o),
(89,16,o),
(211,16,cs),
(301,16,o),
(364,63,o),
(406,131,c),
(407,131,l),
(382,5,ls),
(364,-84,o),
(313,-153,o),
(196,-153,cs),
(110,-153,o),
(45,-118,o),
(38,-48,c),
(8,-48,l),
(16,-137,o),
(95,-179,o),
(196,-179,cs),
(316,-179,o),
(389,-114,o),
(412,4,cs),
(512,517,l),
(482,517,l)
);
},
{
closed = 1;
nodes = (
(389,500,o),
(440,416,o),
(440,318,cs),
(440,194,o),
(365,42,o),
(214,42,cs),
(106,42,o),
(54,118,o),
(54,219,cs),
(54,349,o),
(129,500,o),
(279,500,cs)
);
}
);
width = 514;
}
);
note = g;
unicode = 103;
},
{
glyphname = h;
kernLeft = b;
kernRight = h;
lastChange = "2023-04-04 05:35:24 +0000";
layers = (
{
hints = (
{
horizontal = 1;
place = (0, 21);
target = up;
type = BottomGhost;
},
{
horizontal = 1;
place = (499, 26);
place = (499, 26);
type = Stem;
},
{
horizontal = 1;
place = (715, -20);
target = down;
type = TopGhost;
},
{
place = (417, 30);
place = (417, 30);
type = Stem;
}
);
layerId = m01;
shapes = (
{
closed = 1;
nodes = (
(2,0,l),
(32,0,l),
(91,308,ls),
(109,402,o),
(207,499,o),
(320,499,cs),
(401,499,o),
(428,444,o),
(413,367,cs),
(342,0,l),
(372,0,l),
(443,367,ls),
(462,467,o),
(416,525,o),
(325,525,cs),
(227,525,o),
(152,464,o),
(110,397,c),
(108,397,l),
(170,715,l),
(140,715,l)
);
}
);
width = 471;
}
);
note = h;
unicode = 104;
},
{
glyphname = i;
kernLeft = b;
lastChange = "2023-04-04 05:37:34 +0000";
layers = (
{
hints = (
{
horizontal = 1;
place = (0, 21);
target = up;
type = BottomGhost;
},
{
horizontal = 1;
place = (517, -20);
target = down;
type = TopGhost;
},
{
horizontal = 1;
place = (644, 66);
place = (644, 66);
type = Stem;
},
{
place = (3, 167);
place = (3, 167);
type = Stem;
}
);
layerId = m01;
shapes = (
{
closed = 1;
nodes = (
(3,0,l),
(33,0,l),
(133,517,l),
(103,517,l)
);
},
{
closed = 1;
nodes = (
(128,644,l),
(158,644,l),
(170,710,l),
(141,710,l)
);
}
);
width = 136;
}
);
note = i;
unicode = 105;
},
{
glyphname = j;
kernLeft = j;
kernRight = j;
lastChange = "2023-04-04 05:40:58 +0000";
layers = (
{
hints = (
{
horizontal = 1;
place = (-156, 27);
place = (-156, 27);
type = Stem;
},
{
horizontal = 1;
place = (517, -20);
target = down;
type = TopGhost;
},
{
horizontal = 1;
place = (644, 66);
place = (644, 66);
type = Stem;
},
{
place = (-101, 285);
place = (-101, 285);
type = Stem;
}
);
layerId = m01;
shapes = (
{
closed = 1;
nodes = (
(3,-67,ls),
(-6,-110,o),
(-23,-129,o),
(-66,-129,cs),
(-73,-129,o),
(-89,-127,o),
(-96,-125,c),
(-101,-152,l),
(-94,-154,o),
(-75,-156,o),
(-66,-156,cs),
(-12,-156,o),
(20,-134,o),
(32,-72,cs),
(147,517,l),
(117,517,l)
);
},
{
closed = 1;
nodes = (
(141,644,l),
(171,644,l),
(184,710,l),
(154,710,l)
);
}
);
width = 149;
}
);
note = j;
unicode = 106;
},
{
glyphname = k;
kernLeft = b;
kernRight = k;
lastChange = "2023-04-04 05:43:54 +0000";
layers = (
{
hints = (
{
horizontal = 1;
place = (0, 21);
target = up;
type = BottomGhost;
},
{
horizontal = 1;
place = (517, -20);
target = down;
type = TopGhost;
},
{
horizontal = 1;
place = (715, -20);
target = down;
type = TopGhost;
},
{
place = (2, 449);
place = (2, 449);
type = Stem;
}
);
layerId = m01;
shapes = (
{
closed = 1;
nodes = (
(2,0,l),
(32,0,l),
(69,193,l),
(203,307,l),
(354,0,l),
(387,0,l),
(227,327,l),
(451,517,l),
(410,517,l),
(76,233,l),
(170,715,l),
(140,715,l)
);
}
);
width = 428;
}
);
note = k;
unicode = 107;
},
{
glyphname = l;
kernLeft = b;
lastChange = "2023-04-04 05:47:58 +0000";
layers = (
{
hints = (
{
horizontal = 1;
place = (0, 21);
target = up;
type = BottomGhost;
},
{
horizontal = 1;
place = (715, -20);
target = down;
type = TopGhost;
},
{
place = (5, 168);
place = (5, 168);
type = Stem;
}
);
layerId = m01;
shapes = (
{
closed = 1;
nodes = (
(5,0,l),
(35,0,l),
(173,715,l),
(143,715,l)
);
}
);
width = 139;
}
);
note = l;
unicode = 108;
},
{
glyphname = m;
kernLeft = m;
kernRight = h;
lastChange = "2023-04-04 05:49:17 +0000";
layers = (
{
hints = (
{
horizontal = 1;
place = (0, 21);
target = up;
type = BottomGhost;
},
{
horizontal = 1;
place = (499, 26);
place = (499, 26);
type = Stem;
},
{
place = (383, 24);
place = (383, 24);
type = Stem;
},
{
place = (688, 31);
place = (688, 31);
type = Stem;
},
{
horizontal = 1;
place = (517, -20);
target = down;
type = TopGhost;
}
);
layerId = m01;
shapes = (
{
closed = 1;
nodes = (
(2,0,l),
(32,0,l),
(91,310,ls),
(109,402,o),
(200,499,o),
(303,499,cs),
(374,499,o),
(393,441,o),
(378,367,cs),
(307,0,l),
(337,0,l),
(396,307,ls),
(414,399,o),
(506,499,o),
(608,499,cs),
(679,499,o),
(699,445,o),
(684,368,cs),
(613,0,l),
(643,0,l),
(714,368,ls),
(733,465,o),
(697,525,o),
(613,525,cs),
(523,525,o),
(446,454,o),
(408,391,c),
(407,391,l),
(415,472,o),
(384,525,o),
(307,525,cs),
(216,525,o),
(148,460,o),
(110,400,c),
(109,400,l),
(132,517,l),
(102,517,l)
);
}
);
width = 743;
}
);
note = m;
unicode = 109;
},
{
glyphname = n;
kernLeft = m;
kernRight = h;
lastChange = "2023-04-04 05:49:58 +0000";
layers = (
{
hints = (
{
horizontal = 1;
place = (0, 21);
target = up;
type = BottomGhost;
},
{
horizontal = 1;
place = (499, 26);
place = (499, 26);
type = Stem;
},
{
place = (417, 30);
place = (417, 30);
type = Stem;
},
{
horizontal = 1;
place = (517, -20);
target = down;
type = TopGhost;
}
);
layerId = m01;
shapes = (
{
closed = 1;
nodes = (
(2,0,l),
(32,0,l),
(91,308,ls),
(110,404,o),
(207,499,o),
(320,499,cs),
(401,499,o),
(428,444,o),
(413,367,cs),
(342,0,l),
(372,0,l),
(443,367,ls),
(462,467,o),
(416,525,o),
(325,525,cs),
(227,525,o),
(152,464,o),
(110,397,c),
(108,397,l),
(132,517,l),
(102,517,l)
);
}
);
width = 471;
}
);
note = n;
unicode = 110;
},
{
glyphname = o;
kernLeft = c;
kernRight = o;
lastChange = "2023-04-04 19:46:28 +0000";
layers = (
{
hints = (
{
horizontal = 1;
place = (-10, 26);
place = (-10, 26);
type = Stem;
},
{
horizontal = 1;
place = (500, 26);
place = (500, 26);
type = Stem;
},
{
place = (23, 30);
place = (23, 30);
type = Stem;
},
{
place = (458, 30);
place = (458, 30);
type = Stem;
}
);
layerId = m01;
shapes = (
{
closed = 1;
nodes = (
(114,526,o),
(23,365,o),
(23,209,cs),
(23,71,o),
(113,-10,o),
(230,-10,cs),
(399,-10,o),
(488,150,o),
(488,304,cs),
(488,440,o),
(401,526,o),
(283,526,cs)
);
},
{
closed = 1;
nodes = (
(392,500,o),
(458,417,o),
(458,302,cs),
(458,161,o),
(378,16,o),
(230,16,cs),
(124,16,o),
(53,93,o),
(53,211,cs),
(53,356,o),
(135,500,o),
(282,500,cs)
);
}
);
width = 511;
}
);
note = o;
unicode = 111;
},
{
glyphname = p;
kernLeft = p;
kernRight = thorn;
lastChange = "2023-04-04 19:46:30 +0000";
layers = (
{
hints = (
{
horizontal = 1;
place = (-166, 21);
target = up;
type = BottomGhost;
},
{
horizontal = 1;
place = (-9, 25);
place = (-9, 25);
type = Stem;
},
{
horizontal = 1;
place = (500, 26);
place = (500, 26);
type = Stem;
},
{
place = (59, 15);
place = (59, 15);
type = Stem;
},
{
place = (463, 30);
place = (463, 30);
type = Stem;
},
{
horizontal = 1;
place = (517, -20);
target = down;
type = TopGhost;
}
);
layerId = m01;
shapes = (
{
closed = 1;
nodes = (
(-31,-166,l),
(-1,-166,l),
(58,138,l),
(59,138,l),
(75,61,o),
(135,-9,o),
(239,-9,cs),
(411,-9,o),
(493,162,o),
(493,315,cs),
(494,438,o),
(425,526,o),
(312,526,cs),
(215,526,o),
(150,472,o),
(108,396,c),
(108,396,l),
(132,517,l),
(102,517,l)
);
},
{
closed = 1;
nodes = (
(412,500,o),
(463,416,o),
(463,315,cs),
(463,179,o),
(392,16,o),
(240,16,cs),
(124,16,o),
(74,106,o),
(74,197,cs),
(75,328,o),
(148,500,o),
(308,500,cs)
);
}
);
width = 516;
}
);
note = p;
unicode = 112;
},
{
glyphname = q;
kernLeft = d;
kernRight = q;
lastChange = "2023-04-04 19:46:33 +0000";
layers = (
{
hints = (
{
horizontal = 1;
place = (-166, 21);
target = up;
type = BottomGhost;
},
{
horizontal = 1;
place = (-10, 25);
place = (-10, 25);
type = Stem;
},
{
horizontal = 1;
place = (500, 26);
place = (500, 26);
type = Stem;
},
{
place = (21, 31);
place = (21, 31);
type = Stem;
},
{
place = (444, 16);
place = (444, 16);
type = Stem;
},
{
horizontal = 1;
place = (517, -20);
target = down;
type = TopGhost;
}
);
layerId = m01;
shapes = (
{
closed = 1;
nodes = (
(487,517,l),
(460,377,l),
(459,377,l),
(442,455,o),
(386,526,o),
(286,526,cs),
(115,526,o),
(22,352,o),
(21,200,cs),
(21,74,o),
(94,-10,o),
(207,-10,cs),
(303,-10,o),
(367,42,o),
(409,119,c),
(409,119,l),
(355,-166,l),
(384,-166,l),
(517,517,l)
);
},
{
closed = 1;
nodes = (
(395,500,o),
(445,407,o),
(444,319,cs),
(444,188,o),
(368,15,o),
(210,15,cs),
(106,15,o),
(52,97,o),
(52,200,cs),
(52,337,o),
(132,500,o),
(285,500,cs)
);
}
);
width = 519;
}
);
note = q;
unicode = 113;
},
{
glyphname = r;
kernLeft = m;
kernRight = r;
lastChange = "2023-04-04 06:01:42 +0000";
layers = (
{
hints = (
{
horizontal = 1;
place = (0, 21);
target = up;
type = BottomGhost;
},
{
horizontal = 1;
place = (488, 31);
place = (488, 31);
type = Stem;
},
{
place = (2, 318);
place = (2, 318);
type = Stem;
}
);
layerId = m01;
shapes = (
{
closed = 1;
nodes = (
(2,0,l),
(32,0,l),
(87,287,ls),
(105,379,o),
(178,476,o),
(258,488,cs),
(280,492,o),
(302,491,o),
(315,490,c),
(320,519,l),
(305,521,o),
(278,520,o),
(252,514,cs),
(182,498,o),
(137,446,o),
(108,388,c),
(107,388,l),
(132,517,l),
(102,517,l)
);
}
);
width = 287;
}
);
note = r;
unicode = 114;
},
{
glyphname = s;
kernLeft = scaron;
kernRight = scaron;
lastChange = "2023-04-04 06:04:23 +0000";
layers = (
{
hints = (
{
horizontal = 1;
place = (-10, 26);
place = (-10, 26);
type = Stem;
},
{
horizontal = 1;
place = (499, 27);
place = (499, 27);
type = Stem;
},
{
place = (0, 30);
place = (0, 30);
type = Stem;
},
{
place = (61, 29);
place = (61, 29);
type = Stem;
},
{
place = (352, 29);
place = (352, 29);
type = Stem;
},
{
place = (376, 28);
place = (376, 28);
type = Stem;
}
);
layerId = m01;
shapes = (
{
closed = 1;
nodes = (
(398,470,o),
(332,526,o),
(230,526,cs),
(139,526,o),
(61,483,o),
(61,398,cs),
(61,321,o),
(117,292,o),
(213,257,cs),
(309,221,o),
(352,198,o),
(352,138,cs),
(352,54,o),
(284,16,o),
(196,16,cs),
(93,16,o),
(34,68,o),
(30,154,c),
(0,154,l),
(2,49,o),
(84,-10,o),
(195,-10,cs),
(300,-10,o),
(381,42,o),
(381,138,cs),
(381,217,o),
(328,245,o),
(229,282,cs),
(134,317,o),
(90,339,o),
(90,398,cs),
(90,470,o),
(154,499,o),
(229,499,cs),
(313,499,o),
(369,457,o),
(376,380,c),
(404,380,l)
);
}
);
width = 428;
}
);
note = s;
unicode = 115;
},
{
glyphname = t;
kernLeft = t;
kernRight = t;
lastChange = "2023-04-04 06:06:34 +0000";
layers = (
{
hints = (
{
horizontal = 1;
place = (-3, 26);
place = (-3, 26);
type = Stem;
},
{
horizontal = 1;
place = (491, 26);
place = (491, 26);
type = Stem;
},
{
place = (59, 133);
place = (59, 133);
type = Stem;
}
);
layerId = m01;
shapes = (
{
closed = 1;
nodes = (
(65,491,l),
(138,491,l),
(62,96,ls),
(50,35,o),
(74,-3,o),
(138,-3,cs),
(160,-3,o),
(179,1,o),
(190,6,c),
(195,32,l),
(181,27,o),
(163,23,o),
(142,23,cs),
(97,23,o),
(83,47,o),
(92,95,cs),
(169,491,l),
(279,491,l),
(285,517,l),
(173,517,l),
(204,677,l),
(174,677,l),
(143,517,l),
(70,517,l)
);
}
);
width = 266;
}
);
note = t;
unicode = 116;
},
{
glyphname = u;
kernLeft = u;
kernRight = u;
lastChange = "2023-04-04 06:07:15 +0000";
layers = (
{
hints = (
{
horizontal = 1;
place = (-9, 26);
place = (-9, 26);
type = Stem;
},
{
horizontal = 1;
place = (517, -20);
target = down;
type = TopGhost;
},
{
place = (23, 29);
place = (23, 29);
type = Stem;
},
{
horizontal = 1;
place = (0, 21);
target = up;
type = BottomGhost;
}
);
layerId = m01;
shapes = (
{
closed = 1;
nodes = (
(27,151,ls),
(7,50,o),
(53,-9,o),
(141,-9,cs),
(237,-9,o),
(311,53,o),
(352,118,c),
(354,118,l),
(330,0,l),
(360,0,l),
(461,517,l),
(431,517,l),
(372,214,ls),
(353,114,o),
(257,17,o),
(146,17,cs),
(66,17,o),
(41,73,o),
(56,150,cs),
(128,517,l),
(98,517,l)
);
}
);
width = 465;
}
);
note = u;
unicode = 117;
},
{
glyphname = v;
kernLeft = v;
kernRight = v;
lastChange = "2023-04-04 06:09:08 +0000";
layers = (
{
hints = (
{
horizontal = 1;
place = (0, 21);
target = up;
type = BottomGhost;
},
{
horizontal = 1;
place = (517, -20);
target = down;
type = TopGhost;
},
{
place = (53, 417);
place = (53, 417);
type = Stem;
}
);
layerId = m01;
shapes = (
{
closed = 1;
nodes = (
(150,0,l),
(186,0,l),
(470,517,l),
(439,517,l),
(173,30,l),
(172,30,l),
(83,517,l),
(53,517,l)
);
}
);
width = 428;
}
);
note = v;
unicode = 118;
},
{
glyphname = w;
kernLeft = w;
kernRight = w;
lastChange = "2023-04-04 06:11:15 +0000";
layers = (
{
hints = (
{
horizontal = 1;
place = (0, 21);
target = up;
type = BottomGhost;
},
{
horizontal = 1;
place = (480, 37);
place = (480, 37);
type = Stem;
},
{
place = (56, 670);
place = (56, 670);
type = Stem;
}
);
layerId = m01;
shapes = (
{
closed = 1;
nodes = (
(123,0,l),
(159,0,l),
(381,480,l),
(382,480,l),
(439,0,l),
(474,0,l),
(726,517,l),
(695,517,l),
(463,32,l),
(462,32,l),
(404,517,l),
(371,517,l),
(146,34,l),
(145,34,l),
(87,517,l),
(56,517,l)
);
}
);
width = 687;
}
);
note = w;
unicode = 119;
},
{
glyphname = x;
kernLeft = x;
kernRight = x;
lastChange = "2023-04-04 06:12:58 +0000";
layers = (
{
hints = (
{
horizontal = 1;
place = (0, 21);
target = up;
type = BottomGhost;
},
{
horizontal = 1;
place = (517, -20);
target = down;
type = TopGhost;
},
{
place = (-43, 490);
place = (-43, 490);
type = Stem;
}
);
layerId = m01;
shapes = (
{
closed = 1;
nodes = (
(199,278,l),
(-43,0,l),
(-7,0,l),
(214,254,l),
(214,254,l),
(344,0,l),
(378,0,l),
(236,273,l),
(447,517,l),
(411,517,l),
(221,297,l),
(221,297,l),
(110,517,l),
(76,517,l)
);
}
);
width = 433;
}
);
note = x;
unicode = 120;
},
{
glyphname = y;
kernLeft = yacute;
kernRight = yacute;
lastChange = "2023-04-04 06:18:33 +0000";
layers = (
{
hints = (
{
horizontal = 1;
place = (-169, 28);
place = (-169, 28);
type = Stem;
},
{
horizontal = 1;
place = (517, -20);
target = down;
type = TopGhost;
},
{
place = (-16, 494);
place = (-16, 494);
type = Stem;
},
{
horizontal = 1;
place = (-161, 20);
place = (-161, 20);
type = Stem;
}
);
layerId = m01;
shapes = (
{
closed = 1;
nodes = (
(172,8,l),
(160,-14,o),
(148,-36,o),
(136,-58,cs),
(100,-122,o),
(74,-141,o),
(34,-141,cs),
(13,-141,o),
(1,-137,o),
(-10,-133,c),
(-16,-161,l),
(-5,-165,o),
(10,-169,o),
(33,-169,cs),
(85,-169,o),
(118,-147,o),
(160,-70,cs),
(478,517,l),
(447,517,l),
(192,42,l),
(191,42,l),
(83,517,l),
(52,517,l)
);
}
);
width = 439;
}
);
note = y;
unicode = 121;
},
